<svg width="56" height="56" viewBox="0 0 56 56" fill="none" xmlns="http://www.w3.org/2000/svg">
<path d="M47.4256 16L45.6592 17.7664C47.0632 19.9744 47.5048 22.744 46.5424 25.3912C44.9368 29.8864 39.9616 32.2552 35.4256 30.6496C34.7824 30.4096 34.1824 30.1288 33.6592 29.7664L28 35.4256L23.0632 30.448C20.776 31.972 17.8456 32.4136 15.076 31.4512C10.42 29.7664 8.0128 24.6688 9.69759 20.0536C9.93759 19.3312 10.3 18.688 10.7008 18.088L8.5744 15.9616L8.1736 16.6432C5.9656 20.2552 4.7632 24.4288 4.7632 28.7224C4.7224 41.524 15.1576 52 27.9592 52H28C40.8016 52 51.1984 41.6056 51.2368 28.8016C51.2368 24.5464 50.0728 20.3728 47.8648 16.7224L47.4256 16" fill="black"/>
<path d="M13.312 20.6968C12.7096 21.4984 12.3496 22.504 12.3496 23.5864C12.3496 26.1952 14.476 28.3216 17.0848 28.3216C18.1696 28.3216 19.1728 27.9592 19.9744 27.3184L13.312 20.6968" fill="black"/>
<path d="M36.5488 26.9152C37.312 27.436 38.1952 27.7168 39.1984 27.7168C41.8072 27.7168 43.9336 25.5904 43.9336 22.9816C43.9336 22.0192 43.6528 21.0952 43.132 20.332L36.5488 26.9152Z" fill="black"/>
<path d="M28.0792 31.8928L8.896 12.628L9.6592 11.8264C14.3944 6.8104 20.8552 4 27.7984 4H27.8392C34.8616 4 41.6056 7.0096 46.3 12.2272L47.0224 13.0288L28.0792 31.8928ZM12.028 12.628L28.0816 28.7224L43.9336 12.9496C39.6784 8.6968 33.8992 6.2464 27.88 6.2464H27.8392C21.8584 6.2464 16.2808 8.4952 12.028 12.628" fill="black"/>
</svg>
