<svg width="56" height="56" fill="none" xmlns="http://www.w3.org/2000/svg"><path d="M28.228 5c-9.499.04-17.19 7.988-17.228 17.805 0 1.966.307 3.919.909 5.783.448 1.27 1.78 1.953 3.03 1.56 1.208-.478 1.85-1.843 1.465-3.12a12.107 12.107 0 0 1-.67-4.539c.206-7.09 5.935-12.665 12.796-12.451 6.86.214 12.255 6.135 12.048 13.225-.195 6.638-5.253 12.029-11.669 12.433 0 0-2.418.152-3.62.304-.444.065-.884.156-1.318.27a.155.155 0 0 1-.225.002l-.002-.002a.168.168 0 0 1 0-.199l.374-2.11 2.271-10.557c.273-1.318-.54-2.616-1.815-2.898-1.275-.281-2.53.558-2.803 1.876 0 0-5.402 25.84-5.402 26.075-.309 1.256.425 2.533 1.64 2.852a.32.32 0 0 0 .04.01h.126c1.214.324 2.453-.43 2.765-1.685.006-.02.011-.041.015-.064a.629.629 0 0 1 0-.116c.067-.304.748-3.743.748-3.743.517-2.595 2.54-4.583 5.073-4.985.522-.083 2.713-.235 2.713-.235 9.463-.974 16.369-9.693 15.424-19.472C44.052 12.1 36.902 5.233 28.228 5Z" fill="#1E1E1E"/><path d="M29.273 46.053c-1.554-.334-3.073.697-3.396 2.3l-.01.045c-.335 1.595.642 3.17 2.187 3.517.001 0 .003 0 .005.002h.08c1.512.378 3.032-.584 3.396-2.144l.009-.036v-.163c.267-1.611-.729-3.157-2.271-3.52Z" fill="#E6007A"/></svg>