<svg width="56" height="56" fill="none" xmlns="http://www.w3.org/2000/svg"><g clip-path="url(#a)"><path d="M39.23 20.57c-.803-.454-1.834-.454-2.75 0l-6.417 3.743-4.355 2.383-6.302 3.743c-.802.453-1.833.453-2.75 0l-4.927-2.95a2.76 2.76 0 0 1-1.375-2.382v-5.671c0-.908.459-1.815 1.375-2.382l4.927-2.836c.802-.454 1.834-.454 2.75 0l4.927 2.95a2.76 2.76 0 0 1 1.375 2.381v3.744l4.355-2.496V16.94c0-.907-.459-1.815-1.375-2.382L19.52 9.227c-.802-.454-1.834-.454-2.75 0l-9.396 5.445C6.458 15.125 6 16.032 6 16.94v10.663c0 .907.458 1.815 1.375 2.382l9.281 5.331c.802.454 1.834.454 2.75 0l6.302-3.63 4.355-2.495 6.302-3.63c.802-.454 1.833-.454 2.75 0l4.927 2.836a2.76 2.76 0 0 1 1.375 2.382v5.672c0 .907-.459 1.815-1.375 2.382l-4.813 2.836c-.802.453-1.833.453-2.75 0l-4.927-2.836a2.76 2.76 0 0 1-1.375-2.382v-3.63l-4.354 2.495v3.744c0 .907.458 1.815 1.375 2.382l9.281 5.331c.802.454 1.834.454 2.75 0l9.281-5.331a2.76 2.76 0 0 0 1.375-2.382V28.284c0-.908-.458-1.815-1.375-2.383l-9.28-5.33Z" fill="#8247E5"/></g><defs><clipPath id="a"><path fill="#fff" transform="translate(6 9)" d="M0 0h44v38H0z"/></clipPath></defs></svg>