<svg viewBox="0 0 172 48" fill="none" xmlns="http://www.w3.org/2000/svg" style="width:auto;height:100%;position:absolute;top:0;left:0"><path d="M58.338 36.01c-1.402 0-2.631-.309-3.687-.928a6.332 6.332 0 0 1-2.432-2.514c-.565-1.057-.847-2.223-.847-3.497 0-1.257.282-2.414.847-3.47a6.325 6.325 0 0 1 2.432-2.514c1.057-.62 2.286-.93 3.687-.93 1.421 0 2.66.31 3.716.93a6.33 6.33 0 0 1 2.432 2.513c.565 1.058.847 2.214.847 3.47 0 1.276-.282 2.442-.847 3.498a6.324 6.324 0 0 1-2.432 2.514c-1.056.62-2.295.929-3.716.929zm0-3.087c1.039 0 1.858-.364 2.458-1.093.62-.747.93-1.667.93-2.76 0-1.074-.31-1.976-.93-2.704-.6-.747-1.42-1.12-2.458-1.12-1.038 0-1.857.373-2.458 1.12-.601.728-.902 1.63-.902 2.704 0 1.093.3 2.013.902 2.76.6.729 1.42 1.093 2.458 1.093zm9.57-10.438h3.47v1.804c.474-.601 1.093-1.102 1.858-1.503.766-.4 1.549-.601 2.35-.601v3.39a4.441 4.441 0 0 0-.956-.083c-.583 0-1.203.145-1.858.436-.656.274-1.12.62-1.394 1.039v8.718h-3.47v-13.2zm11.567-1.94c-.565 0-1.056-.2-1.475-.6a2.07 2.07 0 0 1-.602-1.476A1.973 1.973 0 0 1 78 17.021c.419-.419.91-.629 1.475-.629.582 0 1.074.2 1.476.601.402.401.602.893.601 1.476 0 .565-.2 1.056-.601 1.475a2.007 2.007 0 0 1-1.476.602zm-1.721 1.94h3.47v13.2h-3.47v-13.2zm8.195 14.072c.983 1.093 2.359 1.64 4.125 1.64.984 0 1.831-.265 2.541-.793.73-.51 1.094-1.357 1.094-2.542v-1.338a5.837 5.837 0 0 1-1.831 1.53c-.69.364-1.46.552-2.24.547-1.11 0-2.113-.255-3.006-.765-.875-.53-1.567-1.294-2.077-2.295-.492-1.02-.738-2.241-.738-3.662 0-1.402.246-2.605.738-3.608.51-1.02 1.202-1.795 2.077-2.323.874-.528 1.876-.792 3.005-.793a4.941 4.941 0 0 1 2.24.522 5.51 5.51 0 0 1 1.83 1.502v-1.694h3.498v12.296c0 2.277-.701 3.89-2.104 4.837-1.383.947-3.058 1.42-5.027 1.42-1.165 0-2.204-.155-3.114-.465-.911-.29-1.767-.792-2.569-1.503l1.558-2.513zm7.76-9.81c-.291-.436-.72-.791-1.285-1.064a3.557 3.557 0 0 0-1.694-.437c-1.001 0-1.812.328-2.431.984-.602.655-.902 1.538-.902 2.649s.3 1.994.901 2.65c.62.656 1.43.984 2.432.984.565 0 1.13-.145 1.694-.436.565-.291.993-.646 1.285-1.066v-4.263zm8.66-6.201c-.564 0-1.056-.2-1.475-.602a2.065 2.065 0 0 1-.601-1.475 1.981 1.981 0 0 1 .601-1.448c.419-.419.91-.629 1.475-.629.583 0 1.075.2 1.476.601.4.401.601.893.601 1.476 0 .565-.2 1.056-.601 1.475a2.007 2.007 0 0 1-1.476.602zm-1.721 1.94h3.47v13.199h-3.47v-13.2zm15.82 5.218c0-.874-.21-1.503-.629-1.885-.419-.383-1.02-.574-1.803-.574a3.393 3.393 0 0 0-1.748.465c-.491.273-.92.646-1.26 1.093v8.882h-3.47v-13.2h3.47v1.722c.473-.565 1.111-1.048 1.913-1.448.801-.401 1.703-.601 2.704-.601 1.421 0 2.487.373 3.197 1.12.729.747 1.093 1.776 1.093 3.088v9.319h-3.47l.003-7.98zm11.342 8.307c-1.22 0-2.149-.31-2.787-.93-.638-.619-.956-1.511-.956-2.677v-6.886h-2.186v-3.033h2.186v-3.608h3.495v3.608h2.677v3.033h-2.677v5.957c0 .419.109.765.328 1.038.218.274.51.41.874.41.241.002.481-.035.71-.11.219-.072.383-.163.492-.272l.738 2.622c-.637.566-1.602.848-2.896.848h.002zm4.803-13.526h3.471v1.804c.474-.601 1.093-1.102 1.858-1.503.764-.4 1.548-.601 2.35-.601v3.39a4.446 4.446 0 0 0-.957-.083c-.583 0-1.202.145-1.858.436-.656.274-1.12.62-1.393 1.039v8.718h-3.471v-13.2zm18.918 11.531a5.54 5.54 0 0 1-1.858 1.475 4.876 4.876 0 0 1-2.213.52c-1.11 0-2.112-.274-3.005-.82-.894-.547-1.595-1.34-2.104-2.377-.492-1.039-.738-2.277-.738-3.716 0-1.403.246-2.623.738-3.662.51-1.057 1.202-1.868 2.076-2.431.893-.565 1.904-.847 3.033-.847a5.055 5.055 0 0 1 2.241.519 5.165 5.165 0 0 1 1.83 1.502v-1.694h3.498v13.2h-3.498v-1.669zm0-7.24c-.309-.438-.746-.793-1.311-1.066a3.556 3.556 0 0 0-1.694-.436c-.984 0-1.785.355-2.404 1.066-.62.692-.929 1.611-.929 2.76 0 1.128.309 2.048.929 2.759.619.71 1.42 1.065 2.404 1.065a3.744 3.744 0 0 0 1.694-.411c.565-.29 1.002-.655 1.311-1.093v-4.645zm8.662-6.23c-.564 0-1.056-.2-1.475-.602a2.065 2.065 0 0 1-.601-1.475 1.981 1.981 0 0 1 .601-1.448c.419-.419.91-.629 1.475-.629.583 0 1.075.2 1.476.601.4.401.601.893.601 1.476 0 .565-.201 1.056-.601 1.475a2.01 2.01 0 0 1-1.476.602zm-1.721 1.94h3.47v13.199h-3.47v-13.2zm10.626 13.525c-1.22 0-2.149-.3-2.787-.902-.619-.62-.929-1.521-.929-2.705V17.458h3.47v14.017c0 .419.11.765.328 1.038.219.274.51.41.874.41a2.23 2.23 0 0 0 .711-.11c.218-.072.373-.163.464-.272l.738 2.622c-.638.566-1.595.848-2.87.848h.001z" fill="#312E81"/><path d="M125.067 41.21v-.944h4.823v.943h-4.823zm3.748 6.134c-.524 0-.977-.074-1.356-.223a1.693 1.693 0 0 1-.879-.767c-.205-.362-.308-.854-.308-1.474v-6.737h1.206v6.895c0 .376.103.667.308.872.206.206.497.309.873.308h1.232v1.128l-1.076-.002zm2.858-.079v-7h.996v2.884h-.052c0-1.022.224-1.771.674-2.247.449-.477 1.124-.715 2.025-.714h.235v1.127h-.444c-.699 0-1.237.185-1.612.555-.376.37-.564.906-.564 1.606v3.788l-1.258.001zm7.288.184c-.525 0-.977-.09-1.357-.269a1.978 1.978 0 0 1-.878-.78c-.206-.34-.308-.751-.308-1.232 0-.498.111-.913.334-1.245.223-.332.548-.583.976-.754.429-.17.944-.255 1.547-.255h1.901v.944h-1.954c-.506 0-.895.122-1.166.367a1.21 1.21 0 0 0-.406.944c0 .384.135.694.406.93.27.236.659.354 1.166.354.292.001.582-.055.853-.164.274-.112.509-.304.674-.55.179-.258.277-.615.295-1.07l.341.498c-.044.498-.164.915-.361 1.251-.19.33-.472.597-.813.767-.344.176-.761.264-1.25.264zm2.294-.184v-2.097h-.21v-2.426c0-.48-.125-.843-.374-1.087-.249-.245-.614-.368-1.094-.368-.271 0-.551.005-.839.013l-.826.027a11.82 11.82 0 0 0-.681.04v-1.102a16.497 16.497 0 0 1 1.271-.072c.226-.005.446-.006.655-.006.717 0 1.302.085 1.757.255.455.17.791.448 1.009.833.218.385.328.904.328 1.56v4.43h-.996zm6.305.235c-.604 0-1.126-.104-1.567-.314a3.098 3.098 0 0 1-1.094-.846 3.7 3.7 0 0 1-.649-1.173 3.983 3.983 0 0 1-.216-1.284v-.238c0-.446.073-.889.216-1.31.142-.426.365-.82.655-1.161A3.253 3.253 0 0 1 146 40.34c.437-.21.948-.314 1.533-.315.586 0 1.112.11 1.58.328.45.205.839.523 1.127.924.284.398.444.868.478 1.41h-1.205a1.716 1.716 0 0 0-.603-1.095c-.341-.293-.8-.439-1.377-.44-.498 0-.913.114-1.245.342a2.07 2.07 0 0 0-.747.93 3.41 3.41 0 0 0-.249 1.337c-.006.452.079.9.249 1.318.153.382.415.71.753.944.337.231.758.347 1.265.347.394 0 .734-.07 1.023-.21a1.85 1.85 0 0 0 .694-.563c.174-.234.283-.51.315-.8h1.205c-.026.55-.186 1.026-.478 1.427a2.938 2.938 0 0 1-1.154.937 3.699 3.699 0 0 1-1.604.338zm7.917 0c-.612 0-1.141-.104-1.586-.314a3.04 3.04 0 0 1-1.089-.833 3.515 3.515 0 0 1-.622-1.16 4.319 4.319 0 0 1-.203-1.31v-.239a4.34 4.34 0 0 1 .203-1.323 3.51 3.51 0 0 1 .622-1.16c.29-.353.656-.636 1.071-.826.432-.206.941-.309 1.527-.309.76 0 1.388.164 1.881.492.479.31.86.749 1.101 1.265a3.86 3.86 0 0 1 .361 1.652v.563h-6.216v-.938h5.296l-.288.51c0-.497-.079-.928-.236-1.29a1.856 1.856 0 0 0-.708-.846c-.315-.2-.712-.301-1.193-.301-.498 0-.911.113-1.239.34a2.052 2.052 0 0 0-.734.931c-.161.394-.242.848-.242 1.363 0 .499.081.947.242 1.344.15.384.413.713.754.944.34.231.773.347 1.297.347.551 0 .999-.122 1.344-.367.345-.244.553-.528.623-.852h1.179a2.728 2.728 0 0 1-1.665 2.045 3.82 3.82 0 0 1-1.48.272zm5.046-.235v-7h.996v2.884h-.052c0-1.022.225-1.771.674-2.247.45-.477 1.125-.715 2.026-.714h.235v1.127h-.442c-.7 0-1.237.185-1.613.555-.375.37-.563.906-.563 1.606v3.788l-1.261.001zm7.669.21c-.918 0-1.628-.197-2.131-.59-.502-.393-.762-.93-.78-1.612h1.18c.018.271.155.527.413.767s.697.36 1.318.36c.559 0 .987-.111 1.284-.334.297-.223.446-.496.446-.82a.791.791 0 0 0-.328-.673c-.218-.162-.572-.269-1.062-.322l-.76-.079c-.664-.07-1.206-.268-1.625-.595-.42-.326-.629-.787-.63-1.383 0-.445.114-.828.341-1.147.228-.319.542-.563.944-.733.402-.171.865-.256 1.388-.256.786 0 1.424.175 1.913.524.489.35.743.87.761 1.56h-1.18c-.009-.28-.138-.517-.387-.714-.249-.196-.618-.294-1.107-.295-.49 0-.861.101-1.115.302a.933.933 0 0 0-.38.76.8.8 0 0 0 .269.63c.179.157.474.258.885.3l.76.08c.752.08 1.355.287 1.809.623.454.335.681.81.681 1.422.007.417-.124.825-.373 1.16-.249.337-.593.599-1.031.786-.438.188-.939.28-1.503.279z" fill="#00A6C7"/><path d="m33.447 32.622 8.456 3.13a18.11 18.11 0 0 1-1.348 2.865l-7.785-4.555a9.13 9.13 0 0 0 .677-1.44z" fill="#4F46E5"/><path d="m40.68 39.106-8.399-4.917.18-.307c.257-.442.475-.905.651-1.385l.124-.335 9.124 3.377-.123.335a18.583 18.583 0 0 1-1.376 2.922l-.18.31zm-7.428-5.175 7.17 4.196c.387-.698.728-1.421 1.02-2.165l-7.79-2.884c-.12.292-.254.578-.4.853z" fill="#312E81"/><path d="M42.742 26.303c.183 1.042.274 2.1.274 3.158h-9.01c0-.532-.045-1.063-.136-1.586l8.873-1.572z" fill="#4F46E5"/><path d="M43.372 29.817H33.65v-.357c0-.512-.044-1.023-.132-1.527l-.06-.35 9.574-1.695.062.353c.185 1.063.278 2.14.277 3.219l.001.357zm-9.015-.714h8.298c-.016-.8-.085-1.597-.206-2.387l-8.173 1.447c.042.312.07.627.08.94z" fill="#312E81"/><path d="M36.602 15.579c.806.684 1.55 1.438 2.225 2.25l-6.926 5.785a9.193 9.193 0 0 0-1.116-1.13l5.817-6.905z" fill="#4F46E5"/><path d="m31.855 24.118-.229-.275a8.8 8.8 0 0 0-1.07-1.087l-.271-.23 6.277-7.451.273.232c.82.698 1.58 1.466 2.268 2.295l.227.274-7.475 6.242zm-.571-1.67c.23.211.45.436.658.667l6.381-5.329a18.004 18.004 0 0 0-1.68-1.7l-5.36 6.362z" fill="#312E81"/><path d="M3.204 13.055a2.277 2.277 0 1 0 0-4.554 2.277 2.277 0 0 0 0 4.554z" fill="#4F46E5"/><path d="M3.204 13.412a2.634 2.634 0 1 1 0-5.268 2.634 2.634 0 0 1 0 5.268zm0-4.554a1.92 1.92 0 1 0 0 3.84 1.92 1.92 0 0 0 0-3.84z" fill="#312E81"/><path d="M15.587 10.481a2.434 2.434 0 1 0 0-4.868 2.434 2.434 0 0 0 0 4.868z" fill="#4F46E5"/><path d="M15.587 10.838a2.79 2.79 0 1 1 0-5.58 2.79 2.79 0 0 1 0 5.58zm0-4.868a2.077 2.077 0 1 0 0 4.155 2.077 2.077 0 0 0 0-4.155z" fill="#312E81"/><path d="M24.335 12.12a1.62 1.62 0 1 0 0-3.24 1.62 1.62 0 0 0 0 3.24z" fill="#4F46E5"/><path d="M24.335 12.477a1.976 1.976 0 1 1 0-3.952 1.976 1.976 0 0 1 0 3.952zm0-3.24a1.263 1.263 0 1 0 0 2.524 1.263 1.263 0 0 0 0-2.522v-.002z" fill="#312E81"/><path d="M9.406 5.924a1.469 1.469 0 1 0 0-2.937 1.469 1.469 0 0 0 0 2.937z" fill="#4F46E5"/><path d="M9.406 6.281a1.824 1.824 0 1 1 0-3.648 1.824 1.824 0 0 1 0 3.648zm0-2.937a1.11 1.11 0 1 0 0 2.22 1.11 1.11 0 0 0 0-2.22z" fill="#312E81"/><path d="M3.097 2.59a1.117 1.117 0 1 0 0-2.233 1.117 1.117 0 0 0 0 2.233z" fill="#4F46E5"/><path d="M3.097 2.948a1.474 1.474 0 1 1 0-2.948 1.474 1.474 0 0 1 0 2.948zm0-2.234a.76.76 0 1 0 0 1.52.76.76 0 0 0 0-1.52z" fill="#312E81"/><path d="M3.18 24.573a2.823 2.823 0 1 0 0-5.647 2.823 2.823 0 0 0 0 5.647z" fill="#4F46E5"/><path d="M3.18 24.93a3.18 3.18 0 1 1 0-6.362 3.18 3.18 0 0 1 0 6.362zm0-5.647a2.467 2.467 0 1 0 0 4.933 2.467 2.467 0 0 0 0-4.933z" fill="#312E81"/><path d="M31.869 35.343a9.068 9.068 0 0 1-6.963 3.255c-5.028 0-9.104-4.09-9.104-9.139 0-5.048 4.076-9.14 9.104-9.14v-6.257a3.212 3.212 0 0 1-3.791-1.874.592.592 0 0 0-.694-.35l-.01.004a.589.589 0 0 0-.443.608 2.598 2.598 0 0 1-4.742 1.626 4.165 4.165 0 0 0-.284-.38 4.392 4.392 0 0 0-3.324-1.523 4.416 4.416 0 0 0-4.406 4.371 4.385 4.385 0 0 0 1.238 3.09c.27.271.575.503.908.69a3.248 3.248 0 0 1-1.623 6.062c-.23 0-.89-.083-1-.083a3.157 3.157 0 1 0 0 6.314h.003a.396.396 0 0 1 .387.32c1.616 8.38 8.961 14.71 17.78 14.707a18.041 18.041 0 0 0 13.855-6.475l-6.891-5.825z" fill="#4F46E5"/><path d="M24.914 48h-.012a18.347 18.347 0 0 1-11.817-4.293 18.593 18.593 0 0 1-6.31-10.703.037.037 0 0 0-.037-.03 3.514 3.514 0 1 1-.003-7.028c.06 0 .167.01.382.032s.5.051.618.051a2.892 2.892 0 0 0 1.444-5.397 4.432 4.432 0 0 1-.986-.751 4.73 4.73 0 0 1-1.339-3.34 4.769 4.769 0 0 1 4.758-4.727h.006a4.757 4.757 0 0 1 3.592 1.646c.112.132.215.27.31.414a2.235 2.235 0 0 0 1.903.983 2.257 2.257 0 0 0 2.187-2.068 2.269 2.269 0 0 0 0-.317.948.948 0 0 1 .71-.976l.01-.003a.952.952 0 0 1 1.114.56 2.855 2.855 0 0 0 3.37 1.666l.449-.119v7.075h-.357c-4.823 0-8.747 3.94-8.747 8.784a8.765 8.765 0 0 0 8.747 8.782h.003a8.69 8.69 0 0 0 6.686-3.126l.23-.276 7.437 6.287-.228.272A18.398 18.398 0 0 1 24.914 48zm-.009-.713h.008a17.68 17.68 0 0 0 13.342-6.077l-6.348-5.367a9.4 9.4 0 0 1-6.998 3.112h-.004a9.497 9.497 0 0 1-.357-18.987v-5.471a3.566 3.566 0 0 1-3.763-2.172.233.233 0 0 0-.275-.14l-.01.003a.234.234 0 0 0-.176.238 2.963 2.963 0 0 1-2.886 3.145h-.063a2.948 2.948 0 0 1-2.445-1.297 3.732 3.732 0 0 0-.26-.348 4.045 4.045 0 0 0-3.052-1.396h-.005a4.053 4.053 0 0 0-4.044 4.017 4.02 4.02 0 0 0 1.138 2.84c.246.247.525.459.83.63a3.605 3.605 0 0 1-1.801 6.728c-.154 0-.439-.03-.69-.055a8.06 8.06 0 0 0-.312-.029 2.8 2.8 0 0 0 0 5.6.754.754 0 0 1 .741.609 17.877 17.877 0 0 0 6.067 10.29 17.632 17.632 0 0 0 11.36 4.127h.003z" fill="#312E81"/></svg>