<svg width="100" height="200" fill="none" xmlns="http://www.w3.org/2000/svg"><g clip-path="url(#a)"><path opacity=".2" d="M11.116 217.175s-5.779 2.919-2.89 5.839c2.89 2.919 9.43 0 9.43 0l61.84-36.979s3.853-1.946 1.927-4.866c-1.926-2.919-7.705-.973-7.705-.973l-62.602 36.979Z" fill="#8490CA" stroke="#565656" stroke-width=".766" stroke-miterlimit="10"/><path d="M3.552 106.852 44.89 48.601l24.545 22.254.566 45.182-49.227 26.977-17.22-36.162Z" fill="#010001"/><path d="M61.58 85.656v39.286l8.649-4.477-.568-39.061" fill="#C4C4C5"/><path d="M61.58 85.656v39.286l8.649-4.477-.568-39.061" stroke="#B5B5B5" stroke-width=".766" stroke-miterlimit="10"/><path d="M95.25 139.754s7.541 3.727 2.812 11.035l-28.999 17.069s-2.456 1.216-4.98 0l-59-35.344-1.203-9.751 9.65-29.252 81.72 46.243Z" fill="#fff" stroke="#B5B5B5" stroke-width=".766" stroke-miterlimit="10"/><path d="M99.614 145.982c.04 1.382-.375 2.978-1.56 4.807l-28.999 17.069s-2.456 1.217-4.98 0l4.277-1.255 1.926-3.893" fill="#C6C5C6"/><path d="M95.25 139.754s7.541 3.727 2.812 11.035l-28.999 17.069s-2.456 1.216-4.98 0l-59-35.344-1.203-9.751 9.65-29.252 81.72 46.243Z" stroke="#B5B5B5" stroke-width=".766" stroke-miterlimit="10"/><path d="M95.25 139.754s7.541 3.727 2.812 11.035l-28.999 17.069s-2.456 1.216-4.98 0l-59-35.344-1.203-9.751 9.65-29.252 81.72 46.243Z" stroke="#131316" stroke-width="1.021" stroke-miterlimit="10"/><path d="m66.742 160.54 31.682-17.904" stroke="#060607" stroke-width="1.531" stroke-miterlimit="10"/><path d="M85.121 134.021 53.34 152.822M73.023 122.705 36.86 144.027M58.964 116.614 22.04 136.563" stroke="#060607" stroke-width="1.021" stroke-miterlimit="10"/><path d="M68.354 166.601s3.034-4.846-2.774-8.505c-6-3.775-61.706-35.344-61.706-35.344" stroke="#B5B5B5" stroke-width="1.021" stroke-miterlimit="10"/><path d="M82.067 149.047c3.823 3.211 3.746 6.968 3.188 9.274l-.848.506c.655-1.985 1.195-5.878-2.793-9.225C73.92 143.14 23.51 114.579 23 114.287l.347-.623c.51.282 50.987 28.883 58.721 35.383Z" fill="#131316"/><path opacity=".6" d="m17.328 65.31.944 73.072 39.487-21.409 3.852-48.656-9.862-17.05L17.328 65.31Z" fill="#000"/><path d="M1.465 57.062 60.37 31.06l8.649 5.255L11.76 61.46 1.465 57.062Z" fill="#fff" stroke="#B5B5B5" stroke-width=".766" stroke-miterlimit="10"/><path d="m63.595 167.827-51.248-30.566c-2.186-1.304-2.927-4.184-1.627-6.403l.202-.351c1.29-2.208 4.141-2.958 6.337-1.644l51.247 30.566c2.187 1.304 2.928 4.184 1.628 6.403l-.202.35a4.619 4.619 0 0 1-6.337 1.645Z" fill="#7F7E80" stroke="#131316" stroke-width=".766" stroke-miterlimit="10"/><path d="m64.578 166.349-50.284-29.982c-1.377-.827-1.84-2.637-1.03-4.029l.125-.223c.819-1.392 2.61-1.859 3.987-1.042l50.284 29.982c1.378.827 1.84 2.637 1.03 4.029l-.124.224a2.91 2.91 0 0 1-3.988 1.041Z" fill="#010001"/><path d="M1.468 57.062v109.35l10.296 5.421V61.46L1.468 57.063Z" fill="#EFEEEF" stroke="#B5B5B5" stroke-width=".766" stroke-miterlimit="10"/><path d="m69.664 81.127-.645-44.813L11.76 61.46v110.362l12.8-7.649.02-.671V91.753s1.762-21.642 19.387-26.984c17.625-5.343 17.625 17.808 17.625 17.808v2.802" fill="#C4C4C5"/><path d="m69.664 81.127-.645-44.813L11.76 61.46v110.362l12.8-7.649.02-.671V91.753s1.762-21.642 19.387-26.984c17.625-5.343 17.625 17.808 17.625 17.808v2.802" stroke="#B5B5B5" stroke-width=".766" stroke-miterlimit="10"/><path d="m73.025 127.171 22.219 12.573s7.541 3.727 2.812 11.035" stroke="#131316" stroke-width="1.021" stroke-miterlimit="10"/><path d="m45.789 114.316.029 22.868 18.51 11.444-.009-8.164v-15.045l-18.203-11.035-.327-.068Z" fill="#B54542"/><path d="M83.176 114.384v22.732l-18.848 11.512.02-8.164v-15.045l18.828-11.035Z" fill="#DD5755"/><path d="m83.177 114.384-18.81-11.035-18.578 10.966 18.53 11.104 18.858-11.035Z" fill="#EA5E5E"/><path d="m45.73 114.209-.066.039v23.024l18.684 11.541 19.002-11.502.068-.039v-23.024l-18.935-10.841-.106-.058-18.646 10.86Zm37.408 22.917-18.771 11.385-18.434-11.376v-22.712l18.434-10.753 18.77 10.753v22.703Z" fill="#010001"/><path d="M64.18 148.532a.52.52 0 0 1 .27.088v-23.015l18.848-11.132a.61.61 0 0 1-.116-.253l-18.867 11.142-18.395-11.181a.578.578 0 0 1-.126.243l18.386 11.172v22.936Z" fill="#010001"/><path d="M58.473 25.843c1.766 0 3.197-1.447 3.197-3.23 0-1.785-1.43-3.232-3.197-3.232-1.766 0-3.198 1.447-3.198 3.231 0 1.784 1.432 3.23 3.198 3.23ZM3.575 48.225c1.766 0 3.197-1.447 3.197-3.231 0-1.784-1.431-3.23-3.197-3.23S.377 43.21.377 44.993s1.432 3.23 3.198 3.23Z" fill="#F3B7AB" stroke="#3D3D3D" stroke-width="1.021" stroke-miterlimit="10"/></g><defs><clipPath id="a"><path fill="#fff" transform="translate(0 19)" d="M0 0h100v161H0z"/></clipPath></defs></svg>